<?xml version="1.0" standalone="no"?>
<!DOCTYPE svg PUBLIC "-//W3C//DTD SVG 20010904//EN"
 "http://www.w3.org/TR/2001/REC-SVG-20010904/DTD/svg10.dtd">
<svg version="1.0" xmlns="http://www.w3.org/2000/svg"
 width="1000.000000pt" height="1000.000000pt" viewBox="0 0 1000.000000 1000.000000"
 preserveAspectRatio="xMidYMid meet">

<g transform="translate(0.000000,1000.000000) scale(0.100000,-0.100000)"
fill="#000000" stroke="none">
<path d="M6947 6847 c-9 -7 -17 -19 -19 -27 -2 -8 -8 -20 -14 -27 -6 -6 -11
-32 -9 -56 1 -35 -2 -44 -12 -40 -8 3 -32 -9 -53 -26 -45 -36 -62 -38 -111
-13 -51 26 -130 20 -181 -13 -21 -14 -36 -30 -33 -35 4 -6 1 -10 -5 -10 -7 0
-10 -7 -7 -15 4 -8 2 -17 -3 -20 -15 -9 -12 -81 5 -122 11 -27 13 -44 5 -72
-5 -20 -16 -73 -25 -119 -27 -141 6 -232 83 -232 11 0 25 -6 31 -14 7 -8 26
-18 42 -21 44 -10 52 -41 45 -166 -6 -96 -4 -107 13 -123 11 -10 25 -15 32
-10 8 4 10 3 5 -4 -5 -8 0 -12 13 -12 14 0 21 9 26 31 4 16 12 28 18 26 18 -6
49 -75 40 -90 -15 -26 -79 -93 -111 -116 -18 -12 -30 -27 -26 -32 3 -5 0 -8
-8 -7 -7 2 -12 -3 -10 -10 1 -8 -2 -11 -8 -7 -14 8 -102 -64 -93 -78 3 -6 1
-7 -5 -3 -6 4 -20 -2 -32 -14 -11 -11 -20 -17 -20 -14 0 3 -12 -4 -26 -15 -19
-15 -41 -21 -80 -21 -50 0 -84 -16 -84 -40 0 -5 16 -29 35 -54 19 -26 35 -55
35 -67 0 -68 107 -155 127 -103 3 9 -1 31 -10 49 -16 33 -15 36 14 93 28 57
32 61 79 72 26 6 51 18 54 26 3 9 10 13 16 9 18 -11 180 78 243 134 17 16 27
20 27 11 0 -7 13 -34 28 -59 29 -46 29 -47 28 -201 -1 -85 -5 -173 -10 -196
-10 -51 -10 -51 149 -44 98 4 120 8 120 20 0 8 -19 24 -41 36 -100 50 -117 84
-89 180 10 33 18 64 19 69 1 6 6 17 11 25 15 24 9 209 -9 275 -9 33 -18 67
-20 76 -2 8 -12 33 -21 55 -10 22 -20 83 -24 139 -12 154 18 199 72 110 15
-25 27 -50 27 -55 0 -6 9 -19 20 -30 20 -20 19 -20 -8 -45 l-27 -26 30 2 c69
7 97 73 50 118 -17 16 -25 34 -25 58 0 38 -28 133 -39 133 -4 0 -8 6 -9 13 -6
66 -15 136 -28 209 -12 67 -13 95 -5 119 8 24 7 37 -4 60 -9 16 -20 29 -26 29
-6 0 -7 -4 -4 -10 3 -5 4 -10 1 -10 -3 0 -10 10 -17 21 -9 17 -8 20 3 13 11
-6 11 -5 0 8 -15 18 -13 71 3 59 5 -5 20 -5 32 0 16 6 21 15 19 36 -2 15 3 34
11 41 12 12 12 16 -2 26 -22 16 -28 77 -11 117 l14 34 -103 2 c-67 1 -108 -3
-118 -10z"/>
<path d="M2827 5953 c-72 -3 -97 -7 -94 -16 2 -7 10 -13 18 -14 8 -1 31 -4 52
-8 l37 -6 0 -259 c0 -212 3 -260 14 -260 17 0 26 110 26 342 l0 178 25 5 c14
3 36 7 50 10 35 7 33 36 -2 33 -16 -1 -72 -4 -126 -5z"/>
<path d="M3071 5941 c-10 -7 -13 -67 -11 -277 1 -248 6 -301 27 -280 4 4 10
59 12 121 2 78 7 118 16 125 8 6 41 10 77 8 l63 -3 5 -122 c3 -67 9 -125 13
-130 20 -19 27 36 29 220 4 329 4 340 -8 344 -18 6 -23 -19 -30 -147 l-7 -120
-59 0 c-97 0 -98 1 -98 140 0 65 -4 121 -8 124 -4 2 -14 1 -21 -3z"/>
<path d="M3397 5943 c-9 -16 -17 -479 -9 -508 6 -23 18 -33 48 -43 50 -17 127
-5 132 20 3 15 -6 17 -70 15 l-73 -2 -3 152 -3 151 31 7 c16 4 49 5 72 3 33
-2 43 1 43 12 0 11 -17 16 -70 20 l-70 5 4 60 c1 33 5 63 8 68 2 4 40 7 84 7
60 0 79 3 79 14 0 9 -18 15 -52 20 -72 8 -146 8 -151 -1z"/>
<path d="M3735 5610 c-8 -13 20 -24 41 -16 20 8 9 26 -16 26 -10 0 -22 -5 -25
-10z"/>
<path d="M3815 5610 c-8 -13 20 -24 42 -16 15 6 15 8 3 16 -20 13 -37 12 -45
0z"/>
<path d="M3895 5611 c-3 -5 -2 -11 2 -13 14 -7 43 -3 45 6 4 12 -39 18 -47 7z"/>
<path d="M3974 5609 c-6 -10 6 -16 28 -15 10 1 17 5 15 11 -3 11 -36 15 -43 4z"/>
<path d="M4054 5609 c-5 -9 6 -16 24 -13 6 1 17 2 24 3 6 0 8 4 4 8 -9 10 -46
11 -52 2z"/>
<path d="M4135 5610 c-7 -11 30 -19 45 -10 7 5 2 9 -14 12 -15 3 -29 2 -31 -2z"/>
<path d="M4230 5610 c-24 -8 -23 -8 8 -9 20 -1 31 3 27 9 -3 6 -7 10 -8 9 -1
-1 -13 -5 -27 -9z"/>
<path d="M4294 5608 c-3 -4 9 -8 27 -8 18 0 29 3 25 7 -10 10 -46 11 -52 1z"/>
<path d="M4374 5609 c-3 -5 9 -9 25 -9 17 0 31 2 31 4 0 8 -51 13 -56 5z"/>
<path d="M4463 5603 c9 -2 25 -2 35 0 9 3 1 5 -18 5 -19 0 -27 -2 -17 -5z"/>
<path d="M4543 5603 c9 -2 25 -2 35 0 9 3 1 5 -18 5 -19 0 -27 -2 -17 -5z"/>
<path d="M4623 5603 c9 -2 25 -2 35 0 9 3 1 5 -18 5 -19 0 -27 -2 -17 -5z"/>
<path d="M4703 5603 c9 -2 25 -2 35 0 9 3 1 5 -18 5 -19 0 -27 -2 -17 -5z"/>
<path d="M4783 5603 c9 -2 25 -2 35 0 9 3 1 5 -18 5 -19 0 -27 -2 -17 -5z"/>
<path d="M4863 5603 c9 -2 25 -2 35 0 9 3 1 5 -18 5 -19 0 -27 -2 -17 -5z"/>
<path d="M4943 5603 c9 -2 25 -2 35 0 9 3 1 5 -18 5 -19 0 -27 -2 -17 -5z"/>
<path d="M5023 5603 c9 -2 25 -2 35 0 9 3 1 5 -18 5 -19 0 -27 -2 -17 -5z"/>
<path d="M5103 5603 c9 -2 25 -2 35 0 9 3 1 5 -18 5 -19 0 -27 -2 -17 -5z"/>
<path d="M5183 5603 c9 -2 25 -2 35 0 9 3 1 5 -18 5 -19 0 -27 -2 -17 -5z"/>
<path d="M5263 5603 c9 -2 25 -2 35 0 9 3 1 5 -18 5 -19 0 -27 -2 -17 -5z"/>
<path d="M5343 5603 c9 -2 25 -2 35 0 9 3 1 5 -18 5 -19 0 -27 -2 -17 -5z"/>
<path d="M5423 5603 c9 -2 25 -2 35 0 9 3 1 5 -18 5 -19 0 -27 -2 -17 -5z"/>
<path d="M5503 5603 c9 -2 25 -2 35 0 9 3 1 5 -18 5 -19 0 -27 -2 -17 -5z"/>
<path d="M5583 5603 c9 -2 25 -2 35 0 9 3 1 5 -18 5 -19 0 -27 -2 -17 -5z"/>
<path d="M5663 5603 c9 -2 25 -2 35 0 9 3 1 5 -18 5 -19 0 -27 -2 -17 -5z"/>
<path d="M5743 5603 c9 -2 25 -2 35 0 9 3 1 5 -18 5 -19 0 -27 -2 -17 -5z"/>
<path d="M5823 5603 c9 -2 25 -2 35 0 9 3 1 5 -18 5 -19 0 -27 -2 -17 -5z"/>
<path d="M5903 5603 c9 -2 25 -2 35 0 9 3 1 5 -18 5 -19 0 -27 -2 -17 -5z"/>
<path d="M5983 5603 c9 -2 25 -2 35 0 9 3 1 5 -18 5 -19 0 -27 -2 -17 -5z"/>
<path d="M6063 5603 c9 -2 25 -2 35 0 9 3 1 5 -18 5 -19 0 -27 -2 -17 -5z"/>
<path d="M6143 5603 c9 -2 25 -2 35 0 9 3 1 5 -18 5 -19 0 -27 -2 -17 -5z"/>
<path d="M6223 5603 c9 -2 25 -2 35 0 9 3 1 5 -18 5 -19 0 -27 -2 -17 -5z"/>
<path d="M5731 5241 c-9 -6 -12 -20 -9 -39 2 -17 1 -29 -4 -26 -4 3 -10 -8
-13 -23 -3 -15 -13 -42 -21 -59 -8 -17 -16 -37 -17 -45 -2 -8 -6 -20 -11 -28
-12 -18 -77 -265 -74 -279 1 -4 -3 -18 -9 -32 -6 -14 -14 -43 -17 -65 -9 -56
-16 -96 -22 -125 -3 -14 -8 -51 -11 -82 -5 -49 -11 -62 -43 -95 -21 -20 -36
-41 -34 -45 3 -5 -1 -8 -9 -8 -8 0 -33 -20 -56 -45 -22 -24 -41 -42 -41 -39 0
3 -12 -3 -27 -14 -38 -27 -116 -66 -109 -54 3 5 -11 9 -31 10 -20 1 -43 7 -50
15 -16 16 -23 168 -8 174 7 2 10 21 8 43 -2 22 1 40 5 40 4 0 15 15 25 33 13
24 25 33 47 34 40 3 75 26 141 93 56 57 84 119 75 165 -3 11 -5 23 -5 27 -2
15 -61 38 -99 38 -48 0 -135 -36 -126 -52 4 -6 3 -8 -3 -5 -13 8 -76 -36 -99
-70 -34 -52 -83 -151 -77 -157 4 -3 1 -6 -5 -6 -7 0 -11 -3 -10 -7 0 -5 -1
-15 -4 -23 -59 -163 -44 -269 48 -345 48 -39 56 -42 119 -44 43 -1 72 3 83 11
12 10 14 10 8 1 -4 -7 -2 -13 3 -13 6 0 11 5 11 10 0 6 6 10 13 10 15 0 118
52 113 58 -3 2 3 12 12 21 33 35 50 59 57 81 4 12 9 19 12 16 4 -3 12 2 19 12
12 15 13 14 14 -11 0 -20 4 -26 13 -21 9 6 9 4 1 -7 -17 -21 -9 -110 15 -161
15 -34 29 -49 53 -57 34 -12 98 -5 98 11 0 5 4 7 9 3 12 -7 33 29 23 40 -4 5
-2 6 4 2 15 -8 124 106 124 130 0 10 29 73 34 73 2 0 4 -21 4 -47 4 -103 7
-123 14 -123 4 0 7 -3 6 -7 -5 -23 17 -62 40 -73 34 -16 85 -23 77 -11 -3 5 4
7 15 4 28 -7 149 118 181 187 11 25 11 25 30 -18 10 -24 23 -41 29 -37 5 3 10
-2 10 -12 0 -10 18 -30 39 -45 35 -25 47 -28 118 -26 68 1 87 6 143 35 65 35
100 67 120 113 6 14 21 33 34 42 23 17 24 17 28 -7 3 -13 1 -22 -3 -19 -15 9
-10 -61 7 -102 36 -89 38 -92 68 -98 21 -5 33 -2 38 9 5 8 8 16 7 17 -1 2 3
14 11 27 7 13 19 53 26 89 7 36 20 75 29 88 8 13 15 32 15 44 0 11 4 20 8 20
9 0 29 70 37 130 3 24 12 48 20 53 8 4 15 13 15 20 0 22 111 137 132 137 19 0
20 -4 14 -57 -18 -162 -19 -175 -5 -184 20 -12 48 24 60 78 5 27 10 55 9 63 0
8 0 25 0 38 0 27 -12 53 -36 76 -21 22 -85 21 -105 -1 -9 -10 -31 -32 -50 -50
-19 -17 -44 -43 -56 -58 l-23 -27 -1 29 c-1 15 -1 30 -1 33 11 120 11 138 -2
155 -7 10 -22 19 -34 20 -11 0 -26 6 -34 12 -41 32 -54 23 -63 -47 -5 -43 -18
-100 -36 -165 -16 -59 -27 -134 -28 -186 -1 -37 -8 -53 -36 -86 -19 -22 -32
-43 -30 -47 3 -3 2 -4 -1 -1 -4 2 -39 -22 -78 -54 -105 -85 -132 -99 -190 -94
-27 2 -51 5 -54 7 -11 11 -20 83 -15 125 2 25 6 66 7 89 2 24 7 47 12 50 5 4
15 19 21 35 7 15 17 28 23 28 58 7 165 75 197 127 10 15 20 29 23 32 3 3 12
23 19 45 14 45 1 102 -21 89 -7 -4 -8 -3 -4 4 9 16 -34 32 -82 32 -42 0 -107
-28 -138 -58 -12 -12 -24 -19 -26 -16 -16 15 -140 -175 -144 -221 0 -5 -6 -21
-11 -35 -6 -14 -18 -60 -28 -103 -9 -43 -24 -84 -32 -92 -8 -8 -12 -15 -9 -15
3 0 -2 -8 -11 -18 -10 -11 -26 -30 -35 -43 -20 -28 -116 -130 -104 -111 4 7 2
12 -7 12 -31 0 -35 60 -12 188 8 45 20 92 26 103 6 11 8 27 5 34 -2 7 -2 16 2
19 8 9 14 34 16 73 0 17 4 29 9 26 6 -4 8 0 11 33 1 6 7 18 14 27 7 9 14 32
15 51 1 20 5 36 9 36 3 0 9 19 13 43 3 23 13 62 20 87 8 25 19 73 25 107 15
92 18 104 29 143 22 72 5 146 -29 125 -6 -4 -9 -1 -8 7 2 7 -3 12 -9 11 -7 -2
-13 2 -13 8 0 6 -10 9 -22 7 -17 -2 -26 -14 -37 -48 -7 -25 -21 -61 -29 -80
-9 -19 -17 -39 -17 -45 -1 -5 -6 -19 -12 -30 -8 -16 -33 -104 -38 -135 0 -3
-6 -14 -12 -25 -9 -18 -24 -81 -28 -125 0 -9 -4 -21 -9 -28 -4 -7 -9 -30 -11
-50 -2 -20 -5 -44 -8 -52 -3 -8 -8 -26 -10 -40 -3 -14 -8 -36 -12 -50 -3 -14
-9 -56 -12 -95 -5 -58 -11 -74 -34 -100 -16 -16 -29 -34 -29 -39 0 -5 -10 -17
-22 -27 -11 -11 -17 -19 -13 -19 5 0 0 -7 -11 -16 -10 -8 -12 -13 -4 -9 8 4 6
-1 -4 -9 -11 -9 -16 -16 -10 -16 5 0 1 -5 -9 -11 -9 -6 -14 -15 -11 -21 4 -6
2 -8 -4 -4 -6 3 -27 -7 -46 -24 -19 -17 -43 -32 -53 -34 -15 -3 -18 2 -16 33
1 20 3 61 4 91 1 30 4 60 8 65 3 6 7 21 8 35 3 24 19 88 31 120 3 8 7 30 9 49
3 19 16 58 30 87 14 30 23 63 20 74 -3 11 -2 18 3 15 6 -4 23 53 20 67 0 2 9
35 19 73 11 39 22 90 24 115 8 63 18 113 28 125 10 14 19 95 13 121 -7 27 -94
76 -113 65z m879 -481 c15 8 20 6 25 -10 10 -30 2 -93 -13 -109 -10 -10 -10
-16 0 -30 10 -13 10 -14 -2 -4 -11 10 -23 2 -64 -40 -28 -29 -53 -51 -56 -49
-3 2 -14 0 -25 -4 -43 -14 -44 -13 -28 34 12 33 13 50 5 62 -8 14 -7 17 6 16
9 0 21 8 26 20 6 11 18 28 26 38 49 56 75 81 78 74 2 -4 12 -3 22 2z m-1233
-37 c2 -18 -3 -46 -12 -63 -8 -16 -13 -30 -9 -30 4 0 -5 -9 -20 -21 -14 -11
-24 -25 -21 -30 4 -5 2 -9 -3 -9 -4 0 -18 -9 -30 -20 -12 -12 -22 -18 -22 -15
0 3 -15 -2 -32 -12 -52 -28 -67 -26 -57 8 5 16 13 42 18 58 13 43 40 81 89
129 33 32 51 42 70 40 21 -2 26 -9 29 -35z m-354 -524 c-8 -8 -13 -7 -18 2 -5
8 -4 10 3 5 7 -4 12 -2 12 5 0 7 3 9 7 6 4 -4 2 -12 -4 -18z"/>
<path d="M2732 5131 c-16 -10 -18 -46 -3 -74 16 -29 57 -39 188 -42 45 -2 86
-6 92 -9 6 -4 16 -4 21 -1 17 11 32 -5 19 -21 -20 -24 -64 -244 -54 -272 3 -7
0 -10 -5 -7 -6 3 -10 -2 -11 -12 0 -10 -2 -25 -4 -33 -6 -30 -26 -136 -31
-170 -2 -19 -11 -75 -20 -123 -28 -166 -27 -349 3 -377 14 -14 48 -16 46 -3
-2 7 3 10 10 7 18 -7 68 35 66 55 -1 9 1 23 4 31 6 18 17 94 22 167 2 28 8 60
14 71 6 11 11 31 10 44 0 13 4 50 11 83 6 33 15 85 20 115 4 30 14 87 20 125
6 39 12 81 12 95 0 38 25 151 43 193 12 29 21 37 43 38 39 1 128 -2 173 -6 43
-4 54 6 58 50 1 21 -5 37 -19 50 -20 19 -40 20 -254 22 -127 1 -284 4 -348 6
-64 2 -121 1 -126 -2z"/>
<path d="M4266 4844 c3 -13 2 -30 -4 -37 -6 -6 -11 -16 -12 -22 -9 -45 -20
-55 -55 -53 -19 2 -35 6 -35 11 0 10 -46 9 -68 -2 -9 -4 -35 -17 -56 -27 -101
-49 -212 -219 -231 -355 -16 -107 -17 -160 -5 -188 11 -29 57 -68 73 -63 4 1
7 -2 7 -7 0 -12 70 -12 92 0 10 5 36 29 57 52 29 31 37 45 29 55 -8 9 -7 11 4
7 9 -4 19 4 26 20 12 25 46 32 47 10 2 -47 52 -120 87 -128 7 -1 18 -7 25 -14
23 -21 87 -13 120 16 16 14 28 32 25 40 -2 8 0 11 5 8 13 -8 59 49 103 128
l35 60 11 -50 c7 -27 13 -61 13 -75 2 -34 53 -135 68 -135 7 0 18 -6 25 -12
23 -24 45 -13 72 37 15 27 27 52 26 55 0 3 6 18 13 33 17 31 62 173 59 185 -1
4 3 7 10 7 6 0 9 2 6 5 -3 4 -1 25 4 48 6 23 11 53 13 67 1 14 11 45 22 70 11
25 26 61 33 80 7 19 17 39 22 45 12 13 10 63 -4 71 -12 8 -98 -81 -98 -103 0
-7 -4 -13 -9 -13 -8 0 -47 -97 -54 -135 -2 -11 -9 -39 -16 -63 -6 -23 -9 -47
-6 -52 3 -6 1 -10 -6 -10 -7 0 -9 -3 -6 -7 4 -3 2 -11 -3 -18 -5 -6 -11 -20
-13 -31 -2 -10 -6 -26 -9 -34 -3 -8 -9 -28 -14 -45 -11 -34 -35 -40 -41 -10
-5 28 -3 265 3 355 5 72 4 78 -26 118 -16 23 -36 42 -44 42 -19 0 -27 -25 -13
-40 7 -7 7 -10 1 -7 -14 8 -34 -113 -41 -250 -4 -65 -10 -103 -17 -103 -6 0
-29 -28 -51 -63 -64 -102 -114 -157 -141 -157 -16 0 -24 6 -25 18 -2 32 2 147
7 175 3 18 1 26 -6 22 -6 -4 -1 11 11 31 14 26 17 40 10 42 -8 3 -7 8 4 16 8
6 19 36 24 67 5 31 17 73 25 94 9 21 14 46 11 55 -3 10 1 23 10 30 17 14 20
53 5 80 -6 11 -27 27 -48 36 -20 10 -43 22 -51 28 -26 20 -41 16 -35 -10z
m654 -99 c0 -2 -9 -3 -19 -2 -11 0 -18 5 -15 9 4 6 34 0 34 -7z m-720 -76 c0
-5 -7 -26 -15 -47 -9 -21 -14 -55 -12 -75 2 -21 -2 -45 -9 -56 -8 -11 -11 -26
-8 -35 17 -45 -179 -296 -232 -296 -4 0 -4 39 0 88 5 48 8 95 9 105 1 9 5 17
9 17 4 0 8 9 8 21 0 13 -4 18 -12 13 -7 -4 -8 -3 -4 5 4 6 12 9 17 6 5 -4 9
-3 10 2 4 43 23 84 64 137 20 26 31 45 23 40 -25 -14 40 46 73 69 32 22 79 25
79 6z"/>
<path d="M3370 4825 c-6 -15 -10 -39 -10 -53 0 -15 -9 -54 -21 -86 -11 -32
-21 -85 -22 -116 -1 -32 -5 -56 -9 -54 -7 5 -15 -42 -24 -151 -3 -44 -10 -84
-13 -90 -17 -23 10 -155 31 -155 5 0 7 -3 4 -8 -7 -13 19 -40 45 -47 29 -7 46
8 51 45 2 14 8 32 13 40 5 8 10 22 11 30 1 25 25 103 41 133 8 16 16 36 18 45
2 10 9 31 16 47 16 38 14 32 23 88 5 26 12 47 16 47 4 0 13 14 19 30 5 17 14
30 20 30 5 0 19 16 31 35 21 34 76 72 87 61 7 -6 5 -92 -3 -164 -7 -60 -1 -84
19 -76 23 9 48 75 51 137 1 31 0 57 -3 57 -3 0 -7 12 -8 26 -2 36 -14 45 -65
51 -41 5 -46 2 -94 -43 -28 -27 -60 -62 -72 -77 -20 -27 -46 -30 -36 -4 2 7 6
37 8 68 1 31 6 61 10 68 14 21 -3 57 -31 71 -93 43 -92 43 -103 15z"/>
<path d="M6398 3877 c-10 -17 -12 -79 -8 -292 6 -303 3 -294 77 -256 61 30
119 94 133 146 19 66 8 177 -24 256 -28 68 -65 111 -128 147 l-37 21 -13 -22z
m116 -90 c39 -51 67 -142 67 -218 0 -78 -12 -113 -54 -158 -31 -32 -94 -67
-104 -57 -4 4 -4 79 2 416 1 36 2 68 3 73 4 14 61 -23 86 -56z"/>
<path d="M6706 3881 c-14 -15 -16 -52 -16 -282 0 -145 4 -270 9 -278 24 -38
159 49 192 125 23 50 27 157 9 225 -22 83 -66 151 -124 191 -51 36 -54 37 -70
19z m87 -73 c93 -91 124 -290 59 -373 -30 -37 -75 -71 -104 -79 l-28 -6 0 98
c0 165 13 402 21 402 5 0 28 -19 52 -42z"/>
<path d="M6986 3882 c-6 -11 107 -247 131 -274 14 -16 14 -30 -7 -148 -21
-122 -21 -157 -1 -134 4 5 20 65 36 134 15 69 47 187 71 262 41 129 46 174 20
165 -6 -2 -27 -56 -46 -120 -20 -68 -38 -113 -43 -108 -5 5 -37 58 -71 117
-59 104 -78 126 -90 106z"/>
<path d="M5695 3870 c-10 -17 -26 -483 -17 -515 9 -34 31 -43 110 -44 65 -1
125 27 147 69 33 64 10 154 -53 207 l-26 22 24 26 c19 20 25 39 27 88 4 72 -8
102 -56 134 -26 17 -48 23 -92 23 -32 0 -61 -4 -64 -10z m143 -50 c18 -11 36
-30 41 -42 10 -28 -2 -84 -26 -116 -19 -26 -108 -66 -128 -58 -9 3 -11 33 -8
108 3 56 6 109 8 116 7 19 76 14 113 -8z m13 -255 c38 -20 69 -71 69 -113 0
-65 -93 -122 -175 -106 l-36 6 3 107 3 106 30 6 c51 11 75 10 106 -6z"/>
<path d="M6033 3853 c-14 -34 -9 -354 6 -407 19 -65 77 -126 119 -126 69 0
110 78 138 264 16 109 15 267 -2 273 -7 2 -13 -39 -17 -129 -9 -211 -49 -350
-104 -364 -79 -20 -115 98 -112 371 1 87 -2 130 -10 133 -6 2 -14 -5 -18 -15z"/>
<path d="M2840 3580 c0 -5 11 -10 25 -10 14 0 25 5 25 10 0 6 -11 10 -25 10
-14 0 -25 -4 -25 -10z"/>
<path d="M2920 3580 c0 -5 14 -10 31 -10 17 0 28 4 24 10 -3 6 -17 10 -31 10
-13 0 -24 -4 -24 -10z"/>
<path d="M3000 3580 c0 -5 15 -10 33 -10 24 0 28 3 17 10 -20 13 -50 13 -50 0z"/>
<path d="M3090 3580 c-7 -4 -8 -10 -3 -13 13 -8 43 -3 46 8 3 11 -27 15 -43 5z"/>
<path d="M3165 3570 c3 -5 15 -10 26 -10 10 0 19 5 19 10 0 6 -12 10 -26 10
-14 0 -23 -4 -19 -10z"/>
<path d="M3240 3570 c0 -5 11 -10 25 -10 14 0 25 5 25 10 0 6 -11 10 -25 10
-14 0 -25 -4 -25 -10z"/>
<path d="M3320 3570 c0 -5 11 -10 25 -10 14 0 25 5 25 10 0 6 -11 10 -25 10
-14 0 -25 -4 -25 -10z"/>
<path d="M3400 3570 c0 -5 11 -10 25 -10 14 0 25 5 25 10 0 6 -11 10 -25 10
-14 0 -25 -4 -25 -10z"/>
<path d="M3480 3570 c0 -5 11 -10 25 -10 14 0 25 5 25 10 0 6 -11 10 -25 10
-14 0 -25 -4 -25 -10z"/>
<path d="M3560 3570 c0 -5 15 -10 33 -10 24 0 28 3 17 10 -20 13 -50 13 -50 0z"/>
<path d="M3653 3563 c9 -2 23 -2 30 0 6 3 -1 5 -18 5 -16 0 -22 -2 -12 -5z"/>
<path d="M3720 3560 c0 -5 11 -10 25 -10 14 0 25 5 25 10 0 6 -11 10 -25 10
-14 0 -25 -4 -25 -10z"/>
<path d="M3800 3560 c0 -5 11 -10 25 -10 14 0 25 5 25 10 0 6 -11 10 -25 10
-14 0 -25 -4 -25 -10z"/>
<path d="M3880 3560 c0 -5 11 -10 25 -10 14 0 25 5 25 10 0 6 -11 10 -25 10
-14 0 -25 -4 -25 -10z"/>
<path d="M3960 3560 c0 -5 11 -10 25 -10 14 0 25 5 25 10 0 6 -11 10 -25 10
-14 0 -25 -4 -25 -10z"/>
<path d="M4040 3560 c0 -5 11 -10 25 -10 14 0 25 5 25 10 0 6 -11 10 -25 10
-14 0 -25 -4 -25 -10z"/>
<path d="M4120 3560 c0 -5 12 -10 26 -10 14 0 23 4 19 10 -3 6 -15 10 -26 10
-10 0 -19 -4 -19 -10z"/>
<path d="M4213 3553 c9 -2 23 -2 30 0 6 3 -1 5 -18 5 -16 0 -22 -2 -12 -5z"/>
<path d="M4280 3550 c0 -5 11 -10 25 -10 14 0 25 5 25 10 0 6 -11 10 -25 10
-14 0 -25 -4 -25 -10z"/>
<path d="M4360 3550 c0 -5 11 -10 25 -10 14 0 25 5 25 10 0 6 -11 10 -25 10
-14 0 -25 -4 -25 -10z"/>
<path d="M4440 3550 c0 -5 11 -10 25 -10 14 0 25 5 25 10 0 6 -11 10 -25 10
-14 0 -25 -4 -25 -10z"/>
<path d="M4520 3550 c0 -5 11 -10 25 -10 14 0 25 5 25 10 0 6 -11 10 -25 10
-14 0 -25 -4 -25 -10z"/>
<path d="M4600 3550 c0 -5 11 -10 25 -10 14 0 25 5 25 10 0 6 -11 10 -25 10
-14 0 -25 -4 -25 -10z"/>
<path d="M4693 3543 c9 -2 23 -2 30 0 6 3 -1 5 -18 5 -16 0 -22 -2 -12 -5z"/>
<path d="M4773 3543 c9 -2 23 -2 30 0 6 3 -1 5 -18 5 -16 0 -22 -2 -12 -5z"/>
<path d="M4840 3540 c0 -5 11 -10 25 -10 14 0 25 5 25 10 0 6 -11 10 -25 10
-14 0 -25 -4 -25 -10z"/>
<path d="M4920 3540 c0 -5 11 -10 25 -10 14 0 25 5 25 10 0 6 -11 10 -25 10
-14 0 -25 -4 -25 -10z"/>
<path d="M5000 3540 c0 -5 11 -10 25 -10 14 0 25 5 25 10 0 6 -11 10 -25 10
-14 0 -25 -4 -25 -10z"/>
<path d="M5080 3540 c0 -5 11 -10 25 -10 14 0 25 5 25 10 0 6 -11 10 -25 10
-14 0 -25 -4 -25 -10z"/>
<path d="M5160 3540 c0 -5 11 -10 25 -10 14 0 25 5 25 10 0 6 -11 10 -25 10
-14 0 -25 -4 -25 -10z"/>
<path d="M5253 3533 c9 -2 23 -2 30 0 6 3 -1 5 -18 5 -16 0 -22 -2 -12 -5z"/>
<path d="M5335 3530 c27 -12 35 -12 35 0 0 6 -12 10 -27 9 -25 0 -26 -1 -8 -9z"/>
<path d="M5400 3530 c0 -5 11 -10 25 -10 14 0 25 5 25 10 0 6 -11 10 -25 10
-14 0 -25 -4 -25 -10z"/>
<path d="M5480 3530 c0 -5 11 -10 25 -10 14 0 25 5 25 10 0 6 -11 10 -25 10
-14 0 -25 -4 -25 -10z"/>
<path d="M4760 2796 c0 -34 -1 -34 -37 -29 -54 7 -75 -12 -80 -74 -5 -42 -2
-54 16 -72 23 -23 61 -27 92 -11 13 7 19 7 19 0 0 -5 11 -10 25 -10 l25 0 0
115 0 115 -30 0 c-27 0 -30 -3 -30 -34z m-12 -78 c30 -30 -1 -94 -33 -68 -25
20 -13 80 15 80 3 0 11 -5 18 -12z"/>
<path d="M5960 2715 l0 -115 35 0 35 0 0 115 0 115 -35 0 -35 0 0 -115z"/>
<path d="M6660 2810 c0 -16 7 -20 30 -20 23 0 30 4 30 20 0 16 -7 20 -30 20
-23 0 -30 -4 -30 -20z"/>
<path d="M6870 2797 c0 -32 -1 -32 -38 -29 -28 3 -42 -1 -56 -17 -25 -27 -25
-105 0 -132 19 -21 73 -26 92 -7 9 9 12 9 12 0 0 -7 13 -12 30 -12 l30 0 0
115 0 115 -35 0 c-33 0 -35 -2 -35 -33z m-2 -116 c-2 -28 -7 -36 -23 -36 -15
0 -21 8 -23 34 -4 35 11 53 35 44 9 -4 13 -18 11 -42z"/>
<path d="M2877 2718 c-21 -57 -37 -106 -37 -110 0 -5 16 -8 35 -8 24 0 35 5
35 15 0 11 11 15 40 15 27 0 43 -5 46 -15 6 -15 74 -22 74 -7 0 4 -17 53 -37
110 l-37 102 -41 0 -41 0 -37 -102z m81 -36 c-28 -5 -30 0 -16 39 l11 33 12
-34 c11 -32 10 -35 -7 -38z"/>
<path d="M3110 2710 l0 -110 35 0 35 0 0 110 0 110 -35 0 -35 0 0 -110z"/>
<path d="M3330 2710 l0 -110 35 0 c33 0 35 2 35 35 0 34 1 35 39 35 54 0 85
27 85 75 0 57 -28 75 -120 75 l-74 0 0 -110z m123 47 c8 -21 -8 -39 -29 -35
-11 2 -20 13 -22 26 -3 18 1 22 21 22 14 0 27 -6 30 -13z"/>
<path d="M4960 2790 c0 -28 3 -30 35 -30 l35 0 0 -80 0 -80 35 0 35 0 0 80 0
80 35 0 c32 0 35 2 35 30 l0 30 -105 0 -105 0 0 -30z"/>
<path d="M6219 2805 c-57 -31 -65 -139 -14 -182 29 -25 100 -32 136 -13 13 7
19 7 19 0 0 -5 9 -10 20 -10 18 0 20 7 20 60 l0 60 -60 0 c-53 0 -60 -2 -60
-20 0 -15 7 -20 26 -20 16 0 24 -5 22 -12 -3 -7 -20 -13 -39 -13 -28 0 -35 5
-43 28 -16 44 3 81 42 85 22 2 34 -2 38 -12 7 -17 74 -23 74 -7 0 59 -112 94
-181 56z"/>
<path d="M3586 2749 c-21 -17 -26 -29 -26 -65 0 -61 24 -84 88 -84 63 0 92 28
92 87 0 52 -34 83 -90 83 -23 0 -48 -8 -64 -21z m89 -64 c0 -36 -2 -40 -25
-40 -20 0 -26 6 -28 28 -5 42 5 59 30 55 20 -3 23 -9 23 -43z"/>
<path d="M3760 2763 c0 -4 13 -42 28 -83 26 -70 30 -75 59 -78 30 -3 32 0 46
45 l14 48 13 -47 c11 -44 15 -48 44 -48 30 0 32 3 59 78 15 42 27 81 27 85 0
5 -12 7 -27 5 -22 -2 -30 -10 -38 -40 -15 -53 -21 -54 -34 -3 -11 44 -13 46
-44 43 -29 -3 -33 -7 -41 -45 -5 -24 -12 -43 -16 -43 -4 0 -11 19 -16 43 -8
38 -12 42 -41 45 -18 2 -33 0 -33 -5z"/>
<path d="M4095 2745 c-17 -16 -25 -35 -25 -60 0 -55 35 -85 100 -85 37 0 55 5
70 20 28 28 25 40 -9 40 -17 0 -33 -4 -36 -10 -10 -15 -52 -12 -59 5 -4 12 6
15 61 15 l66 0 -7 33 c-9 45 -39 67 -93 67 -33 0 -50 -6 -68 -25z m95 -30 c0
-9 -9 -15 -25 -15 -16 0 -25 6 -25 15 0 9 9 15 25 15 16 0 25 -6 25 -15z"/>
<path d="M4290 2685 l0 -85 30 0 c29 0 30 2 30 44 0 46 18 76 46 76 8 0 14 10
14 25 0 19 -5 25 -23 25 -13 0 -28 -5 -35 -12 -9 -9 -12 -9 -12 0 0 7 -11 12
-25 12 -25 0 -25 -1 -25 -85z"/>
<path d="M4456 2748 c-37 -34 -39 -95 -4 -128 41 -37 158 -19 158 26 0 9 -11
14 -30 14 -16 0 -30 -5 -30 -11 0 -14 -52 -7 -58 9 -3 9 13 12 57 12 61 0 61
0 61 29 0 64 -101 96 -154 49z m92 -35 c2 -9 -7 -13 -27 -13 -30 0 -39 9 -24
24 11 10 46 3 51 -11z"/>
<path d="M5200 2685 l0 -85 30 0 c29 0 30 1 30 51 0 47 2 52 30 62 38 14 43
57 7 57 -13 0 -28 -5 -35 -12 -9 -9 -12 -9 -12 0 0 7 -11 12 -25 12 -25 0 -25
-1 -25 -85z"/>
<path d="M5358 2759 c-10 -5 -18 -17 -18 -25 0 -12 10 -15 50 -12 60 4 71 -15
13 -23 -50 -6 -73 -24 -73 -54 0 -36 19 -43 113 -43 79 0 87 2 87 19 0 10 -4
19 -10 19 -5 0 -10 22 -10 49 0 40 -4 53 -22 65 -25 18 -104 21 -130 5z m90
-101 c-5 -15 -58 -24 -58 -10 0 15 12 22 38 22 14 0 22 -5 20 -12z"/>
<path d="M5540 2758 c1 -7 13 -44 28 -83 27 -68 29 -70 62 -70 34 0 35 1 66
83 l32 82 -31 0 c-30 0 -33 -3 -48 -52 l-15 -53 -18 53 c-16 47 -21 52 -47 52
-17 0 -29 -5 -29 -12z"/>
<path d="M5765 2745 c-17 -16 -25 -35 -25 -60 0 -55 35 -85 100 -85 37 0 55 5
70 20 28 28 25 40 -9 40 -17 0 -33 -4 -36 -10 -10 -15 -52 -12 -59 5 -4 12 6
15 61 15 l66 0 -7 33 c-9 45 -39 67 -93 67 -33 0 -50 -6 -68 -25z m95 -30 c0
-9 -9 -15 -25 -15 -16 0 -25 6 -25 15 0 9 9 15 25 15 16 0 25 -6 25 -15z"/>
<path d="M6440 2701 c0 -50 4 -74 16 -85 18 -18 56 -21 85 -6 13 7 19 7 19 0
0 -5 14 -10 30 -10 l31 0 -3 83 -3 82 -32 3 -33 3 0 -60 c0 -62 -11 -81 -35
-61 -10 8 -15 31 -15 66 0 53 0 54 -30 54 l-30 0 0 -69z"/>
<path d="M6660 2685 l0 -85 30 0 30 0 0 85 0 85 -30 0 -30 0 0 -85z"/>
<path d="M6996 2749 c-21 -16 -26 -29 -26 -64 0 -58 32 -85 101 -85 40 0 51 4
69 28 l22 27 -32 3 c-18 2 -36 -2 -40 -8 -9 -15 -52 -9 -58 8 -3 9 13 12 57
12 33 0 62 4 65 9 9 14 -15 71 -34 81 -32 17 -95 12 -124 -11z m92 -36 c2 -9
-7 -13 -27 -13 -30 0 -39 9 -24 24 11 10 46 3 51 -11z"/>
</g>
</svg>
